<svg version="1.1" id="Layer_1" xmlns="http://www.w3.org/2000/svg" xmlns:xlink="http://www.w3.org/1999/xlink" x="0px" y="0px"
	 width="100%" viewBox="0 0 375 100" enable-background="new 0 0 375 100" xml:space="preserve">
<path fill="#FDFDFD" opacity="1.000000" stroke="none" 
	d="
M293.000000,101.000000 
	C195.666656,101.000000 98.333313,101.000000 1.000000,101.000000 
	C1.000000,94.921761 1.000000,88.930252 1.420310,82.241737 
	C11.815557,81.405884 21.801249,81.507942 31.762522,81.063133 
	C42.580921,80.580070 49.178818,74.733452 50.471951,65.204521 
	C51.609802,56.819836 48.037544,50.906021 39.144989,46.452923 
	C47.580482,40.089558 49.845192,34.411240 47.246620,26.139648 
	C44.937553,18.789591 38.300972,14.406292 28.442513,14.159219 
	C19.299419,13.930073 10.147841,14.039599 1.000000,14.000000 
	C1.000000,9.672249 1.000000,5.344497 1.000000,1.000000 
	C109.687561,1.000000 218.375122,1.000000 327.500549,1.301832 
	C328.312988,2.032800 328.687592,2.461937 329.272339,3.150199 
	C344.357239,18.251171 359.231934,33.093018 374.223938,48.215996 
	C374.894165,48.664749 375.447083,48.832375 376.000000,49.000000 
	C376.000000,66.272446 376.000000,83.544899 376.000000,101.000000 
	C351.979401,101.000000 327.958374,101.000000 303.607422,100.643517 
	C310.976562,99.822006 314.392426,94.499512 316.954315,88.217133 
	C323.979706,70.989166 331.005371,53.761288 338.012421,36.525852 
	C338.470520,35.399014 338.772644,34.208755 339.175751,32.959873 
	C328.604950,32.064980 328.603027,32.064224 324.979340,41.332809 
	C321.667847,49.802921 318.361206,58.274925 314.787445,67.424606 
	C311.039276,58.211987 307.634003,49.800217 304.195587,41.402031 
	C300.389801,32.106533 300.376343,32.108273 290.392120,32.793205 
	C290.103577,32.813004 289.833710,33.105125 289.314941,33.412651 
	C295.380768,47.545876 301.449463,61.708755 307.537994,75.863106 
	C311.022369,83.963486 306.433655,91.482147 297.688354,91.964478 
	C296.250427,92.043770 294.813385,92.138206 293.000000,92.248512 
	C293.000000,95.383659 293.000000,98.191833 293.000000,101.000000 
M102.637672,58.513287 
	C102.633369,54.685452 102.747086,50.852985 102.597008,47.030876 
	C102.373703,41.343548 100.082512,36.754116 94.938995,33.899406 
	C86.359375,29.137621 68.631927,31.086504 62.918915,37.624680 
	C64.511948,40.044422 66.123825,42.492783 67.707817,44.898800 
	C77.277649,39.817837 83.803360,38.995995 88.752953,42.073689 
	C92.021606,44.106163 92.666786,47.118675 92.125893,50.989426 
	C89.038239,50.989426 86.012001,50.646046 83.095535,51.065620 
	C78.050980,51.791363 72.852249,52.390640 68.125618,54.142319 
	C62.191944,56.341324 59.887104,61.603802 60.027645,67.765785 
	C60.169773,73.997070 63.096001,78.727089 68.959557,80.926834 
	C77.896355,84.279510 86.139259,83.300865 92.960449,75.228241 
	C93.073105,77.447098 93.160553,79.169334 93.242584,80.784943 
	C96.568146,80.784943 99.452660,80.784943 102.637627,80.784943 
	C102.637627,73.448502 102.637627,66.478569 102.637672,58.513287 
M214.549500,60.307594 
	C223.462540,60.307594 232.375595,60.307594 241.688446,60.307594 
	C241.425217,56.801136 241.355026,54.004829 240.983231,51.249218 
	C239.676163,41.562111 232.758240,33.825447 223.912354,32.004074 
	C212.375214,29.628580 202.631714,33.286701 197.363556,41.971603 
	C186.535751,59.821934 196.798569,80.885818 217.441254,82.523048 
	C225.355270,83.150734 233.200974,81.947990 239.434540,75.720703 
	C237.468277,73.114334 235.807343,70.912689 234.194992,68.775459 
	C225.015900,74.144379 217.101471,75.086884 211.160355,71.491920 
	C207.159607,69.071060 204.801025,65.559303 204.751144,60.307625 
	C207.944290,60.307625 210.755783,60.307625 214.549500,60.307594 
M171.587219,22.922855 
	C171.587219,21.657850 171.587219,20.392847 171.587219,19.010170 
	C167.944916,19.010170 164.853333,19.010170 161.188110,19.010170 
	C161.188110,23.631214 161.188110,28.006418 161.188110,32.432369 
	C157.835526,32.581825 155.055939,32.705738 152.255585,32.830578 
	C152.255585,35.598747 152.255585,38.039860 152.255585,41.027847 
	C155.341782,41.027847 158.236923,41.027847 161.384277,41.027847 
	C161.384277,50.545620 161.369507,59.515938 161.389572,68.486176 
	C161.402481,74.247841 163.266617,79.067627 169.028625,81.262718 
	C176.005157,83.920517 182.641388,82.934357 189.073700,78.681267 
	C187.665298,76.191605 186.389374,73.936134 185.037201,71.545906 
	C183.263412,72.107300 181.879517,72.605194 180.463562,72.982819 
	C175.092102,74.415321 171.834274,72.349655 171.677307,66.871384 
	C171.435104,58.418365 171.613525,49.953293 171.613525,40.935669 
	C176.283630,40.935669 180.671967,40.935669 184.938568,40.935669 
	C184.938568,37.816929 184.938568,35.274139 184.938568,32.261456 
	C180.298645,32.261456 176.068222,32.261456 171.587158,32.261456 
	C171.587158,29.132978 171.587158,26.487375 171.587219,22.922855 
M139.223602,32.632645 
	C136.481552,32.632645 133.739502,32.632645 130.590240,32.632645 
	C130.590240,27.605206 130.590240,23.345938 130.590240,19.107975 
	C126.900139,19.107975 123.663712,19.107975 120.056519,19.107975 
	C120.056519,23.708735 120.056519,27.984343 120.056519,32.403118 
	C116.906700,32.570633 114.132042,32.718197 111.346786,32.866322 
	C111.346786,35.608345 111.346786,38.046326 111.346786,40.967949 
	C114.284439,40.967949 117.025604,40.967949 120.125092,40.967949 
	C120.125092,49.737698 120.147919,58.025223 120.117645,66.312546 
	C120.094673,72.600044 121.033058,78.559105 127.716393,81.185509 
	C134.763290,83.954758 141.545853,83.055405 147.959518,78.543007 
	C146.410995,75.968674 145.071823,73.742393 143.808960,71.642952 
	C141.237778,72.352509 139.204285,73.235031 137.109497,73.418709 
	C133.714386,73.716393 130.949203,72.212677 130.856461,68.553726 
	C130.626282,59.473171 130.780792,50.382870 130.780792,40.791260 
	C135.520325,40.791260 139.747391,40.791260 143.864197,40.791260 
	C143.864197,37.835579 143.864197,35.398243 143.864197,32.810291 
	C142.458984,32.742958 141.309647,32.687885 139.223602,32.632645 
M263.816681,67.490997 
	C263.816650,63.664215 263.816223,59.837429 263.816681,56.010647 
	C263.818207,43.522343 267.174713,40.386856 279.672485,41.173275 
	C279.963623,41.191601 280.268829,40.985935 280.817413,40.800060 
	C281.215698,38.009903 281.627625,35.124195 282.048553,32.175308 
	C273.959808,29.664112 267.945343,32.216732 263.173584,39.123192 
	C263.049042,36.573002 262.960815,34.766407 262.871460,32.937172 
	C259.573303,32.937172 256.477936,32.937172 253.547058,32.937172 
	C253.547058,49.136883 253.547058,65.023056 253.547058,80.782242 
	C257.146301,80.782242 260.374878,80.782242 263.816650,80.782242 
	C263.816650,76.432503 263.816650,72.459572 263.816681,67.490997 
z"/>
<path fill="#052A3A" opacity="1.000000" stroke="none" 
	d="
M1.000000,14.333333 
	C10.147841,14.039599 19.299419,13.930073 28.442513,14.159219 
	C38.300972,14.406292 44.937553,18.789591 47.246620,26.139648 
	C49.845192,34.411240 47.580482,40.089558 39.144989,46.452923 
	C48.037544,50.906021 51.609802,56.819836 50.471951,65.204521 
	C49.178818,74.733452 42.580921,80.580070 31.762522,81.063133 
	C21.801249,81.507942 11.815557,81.405884 1.420310,81.772362 
	C1.000000,81.555557 1.000000,81.111107 1.328158,80.069382 
	C1.749099,58.861565 1.849124,38.251034 1.895209,17.640388 
	C1.896430,17.094261 1.311554,16.546825 1.000000,16.000000 
	C1.000000,15.555555 1.000000,15.111111 1.000000,14.333333 
M39.478043,61.482227 
	C39.394249,56.510426 36.826412,52.885334 32.144775,52.175171 
	C25.744678,51.204330 19.176968,51.338455 12.703964,51.000126 
	C12.703964,58.583794 12.703964,65.125404 12.703964,71.369232 
	C18.663692,71.369232 24.300234,71.710632 29.875116,71.270691 
	C35.171932,70.852699 38.758888,67.892189 39.478043,61.482227 
M28.361206,23.910263 
	C23.121666,23.910263 17.882124,23.910263 12.601803,23.910263 
	C12.601803,29.991396 12.601803,35.733261 12.601803,41.975807 
	C17.579920,41.975807 22.342915,42.132568 27.091192,41.935230 
	C32.740494,41.700447 36.520466,38.612919 37.138866,34.131634 
	C37.838287,29.063280 35.476936,26.070604 28.361206,23.910263 
z"/>
<path fill="#072C3C" opacity="1.000000" stroke="none" 
	d="
M293.454102,101.000000 
	C293.000000,98.191833 293.000000,95.383659 293.000000,92.248512 
	C294.813385,92.138206 296.250427,92.043770 297.688354,91.964478 
	C306.433655,91.482147 311.022369,83.963486 307.537994,75.863106 
	C301.449463,61.708755 295.380768,47.545876 289.314941,33.412651 
	C289.833710,33.105125 290.103577,32.813004 290.392120,32.793205 
	C300.376343,32.108273 300.389801,32.106533 304.195587,41.402031 
	C307.634003,49.800217 311.039276,58.211987 314.787445,67.424606 
	C318.361206,58.274925 321.667847,49.802921 324.979340,41.332809 
	C328.603027,32.064224 328.604950,32.064980 339.175751,32.959873 
	C338.772644,34.208755 338.470520,35.399014 338.012421,36.525852 
	C331.005371,53.761288 323.979706,70.989166 316.954315,88.217133 
	C314.392426,94.499512 310.976562,99.822006 303.138794,100.643517 
	C299.969391,101.000000 296.938812,101.000000 293.454102,101.000000 
z"/>
<path fill="#5C91C9" opacity="1.000000" stroke="none" 
	d="
M329.062164,2.891075 
	C328.687592,2.461937 328.312988,2.032800 327.969208,1.301832 
	C343.926727,1.000000 359.853455,1.000000 376.000000,1.000000 
	C376.000000,16.686876 376.000000,32.374779 376.000000,48.531342 
	C375.447083,48.832375 374.894165,48.664749 374.506195,47.917511 
	C374.776672,33.242123 374.845551,19.145899 375.017487,5.050931 
	C375.053558,2.096527 373.307922,1.982796 371.126373,1.988167 
	C358.177612,2.020045 345.228638,1.982572 332.280090,2.041726 
	C331.206177,2.046632 330.134735,2.595138 329.062164,2.891075 
z"/>
<path fill="#516A76" opacity="1.000000" stroke="none" 
	d="
M1.000000,16.468658 
	C1.311554,16.546825 1.896430,17.094261 1.895209,17.640388 
	C1.849124,38.251034 1.749099,58.861565 1.328158,79.736053 
	C1.000000,58.979103 1.000000,37.958210 1.000000,16.468658 
z"/>
<path fill="#0A2F3E" opacity="1.000000" stroke="none" 
	d="
M102.637650,59.010960 
	C102.637627,66.478569 102.637627,73.448502 102.637627,80.784943 
	C99.452660,80.784943 96.568146,80.784943 93.242584,80.784943 
	C93.160553,79.169334 93.073105,77.447098 92.960449,75.228241 
	C86.139259,83.300865 77.896355,84.279510 68.959557,80.926834 
	C63.096001,78.727089 60.169773,73.997070 60.027645,67.765785 
	C59.887104,61.603802 62.191944,56.341324 68.125618,54.142319 
	C72.852249,52.390640 78.050980,51.791363 83.095535,51.065620 
	C86.012001,50.646046 89.038239,50.989426 92.125893,50.989426 
	C92.666786,47.118675 92.021606,44.106163 88.752953,42.073689 
	C83.803360,38.995995 77.277649,39.817837 67.707817,44.898800 
	C66.123825,42.492783 64.511948,40.044422 62.918915,37.624680 
	C68.631927,31.086504 86.359375,29.137621 94.938995,33.899406 
	C100.082512,36.754116 102.373703,41.343548 102.597008,47.030876 
	C102.747086,50.852985 102.633369,54.685452 102.637650,59.010960 
M75.449783,60.636799 
	C71.982704,62.117050 69.425293,64.893959 71.174484,68.348923 
	C72.434486,70.837631 75.704674,73.361862 78.442856,73.858047 
	C87.917862,75.575012 93.584976,69.300835 91.789986,58.911636 
	C86.639656,59.360298 81.406456,59.816181 75.449783,60.636799 
z"/>
<path fill="#072C3B" opacity="1.000000" stroke="none" 
	d="
M214.058395,60.307610 
	C210.755783,60.307625 207.944290,60.307625 204.751144,60.307625 
	C204.801025,65.559303 207.159607,69.071060 211.160355,71.491920 
	C217.101471,75.086884 225.015900,74.144379 234.194992,68.775459 
	C235.807343,70.912689 237.468277,73.114334 239.434540,75.720703 
	C233.200974,81.947990 225.355270,83.150734 217.441254,82.523048 
	C196.798569,80.885818 186.535751,59.821934 197.363556,41.971603 
	C202.631714,33.286701 212.375214,29.628580 223.912354,32.004074 
	C232.758240,33.825447 239.676163,41.562111 240.983231,51.249218 
	C241.355026,54.004829 241.425217,56.801136 241.688446,60.307594 
	C232.375595,60.307594 223.462540,60.307594 214.058395,60.307610 
M227.604340,44.976147 
	C223.594040,40.234524 218.543198,38.933792 212.825348,41.020542 
	C207.697159,42.892086 205.213928,46.920719 204.582535,52.584732 
	C213.453201,52.584732 221.977722,52.584732 231.250946,52.584732 
	C230.044647,49.956173 229.040375,47.767876 227.604340,44.976147 
z"/>
<path fill="#2D72BA" opacity="1.000000" stroke="none" 
	d="
M329.272339,3.150200 
	C330.134735,2.595138 331.206177,2.046632 332.280090,2.041726 
	C345.228638,1.982572 358.177612,2.020045 371.126373,1.988167 
	C373.307922,1.982796 375.053558,2.096527 375.017487,5.050931 
	C374.845551,19.145899 374.776672,33.242123 374.388885,47.636383 
	C359.231934,33.093018 344.357239,18.251171 329.272339,3.150200 
z"/>
<path fill="#0E3241" opacity="1.000000" stroke="none" 
	d="
M171.587189,23.382315 
	C171.587158,26.487375 171.587158,29.132978 171.587158,32.261456 
	C176.068222,32.261456 180.298645,32.261456 184.938568,32.261456 
	C184.938568,35.274139 184.938568,37.816929 184.938568,40.935669 
	C180.671967,40.935669 176.283630,40.935669 171.613525,40.935669 
	C171.613525,49.953293 171.435104,58.418365 171.677307,66.871384 
	C171.834274,72.349655 175.092102,74.415321 180.463562,72.982819 
	C181.879517,72.605194 183.263412,72.107300 185.037201,71.545906 
	C186.389374,73.936134 187.665298,76.191605 189.073700,78.681267 
	C182.641388,82.934357 176.005157,83.920517 169.028625,81.262718 
	C163.266617,79.067627 161.402481,74.247841 161.389572,68.486176 
	C161.369507,59.515938 161.384277,50.545620 161.384277,41.027847 
	C158.236923,41.027847 155.341782,41.027847 152.255585,41.027847 
	C152.255585,38.039860 152.255585,35.598747 152.255585,32.830578 
	C155.055939,32.705738 157.835526,32.581825 161.188110,32.432369 
	C161.188110,28.006418 161.188110,23.631214 161.188110,19.010170 
	C164.853333,19.010170 167.944916,19.010170 171.587219,19.010170 
	C171.587219,20.392847 171.587219,21.657850 171.587189,23.382315 
z"/>
<path fill="#0A2F3E" opacity="1.000000" stroke="none" 
	d="
M139.691956,32.632729 
	C141.309647,32.687885 142.458984,32.742958 143.864197,32.810291 
	C143.864197,35.398243 143.864197,37.835579 143.864197,40.791260 
	C139.747391,40.791260 135.520325,40.791260 130.780792,40.791260 
	C130.780792,50.382870 130.626282,59.473171 130.856461,68.553726 
	C130.949203,72.212677 133.714386,73.716393 137.109497,73.418709 
	C139.204285,73.235031 141.237778,72.352509 143.808960,71.642952 
	C145.071823,73.742393 146.410995,75.968674 147.959518,78.543007 
	C141.545853,83.055405 134.763290,83.954758 127.716393,81.185509 
	C121.033058,78.559105 120.094673,72.600044 120.117645,66.312546 
	C120.147919,58.025223 120.125092,49.737698 120.125092,40.967949 
	C117.025604,40.967949 114.284439,40.967949 111.346786,40.967949 
	C111.346786,38.046326 111.346786,35.608345 111.346786,32.866322 
	C114.132042,32.718197 116.906700,32.570633 120.056519,32.403118 
	C120.056519,27.984343 120.056519,23.708735 120.056519,19.107975 
	C123.663712,19.107975 126.900139,19.107975 130.590240,19.107975 
	C130.590240,23.345938 130.590240,27.605206 130.590240,32.632645 
	C133.739502,32.632645 136.481552,32.632645 139.691956,32.632729 
z"/>
<path fill="#0C3140" opacity="1.000000" stroke="none" 
	d="
M263.816650,67.988815 
	C263.816650,72.459572 263.816650,76.432503 263.816650,80.782242 
	C260.374878,80.782242 257.146301,80.782242 253.547058,80.782242 
	C253.547058,65.023056 253.547058,49.136883 253.547058,32.937172 
	C256.477936,32.937172 259.573303,32.937172 262.871460,32.937172 
	C262.960815,34.766407 263.049042,36.573002 263.173584,39.123192 
	C267.945343,32.216732 273.959808,29.664112 282.048553,32.175308 
	C281.627625,35.124195 281.215698,38.009903 280.817413,40.800060 
	C280.268829,40.985935 279.963623,41.191601 279.672485,41.173275 
	C267.174713,40.386856 263.818207,43.522343 263.816681,56.010647 
	C263.816223,59.837429 263.816650,63.664215 263.816650,67.988815 
z"/>
<path fill="#F5F6F7" opacity="1.000000" stroke="none" 
	d="
M39.469200,61.858902 
	C38.758888,67.892189 35.171932,70.852699 29.875116,71.270691 
	C24.300234,71.710632 18.663692,71.369232 12.703964,71.369232 
	C12.703964,65.125404 12.703964,58.583794 12.703964,51.000126 
	C19.176968,51.338455 25.744678,51.204330 32.144775,52.175171 
	C36.826412,52.885334 39.394249,56.510426 39.469200,61.858902 
z"/>
<path fill="#F7F8F9" opacity="1.000000" stroke="none" 
	d="
M28.768147,23.974464 
	C35.476936,26.070604 37.838287,29.063280 37.138866,34.131634 
	C36.520466,38.612919 32.740494,41.700447 27.091192,41.935230 
	C22.342915,42.132568 17.579920,41.975807 12.601803,41.975807 
	C12.601803,35.733261 12.601803,29.991396 12.601803,23.910263 
	C17.882124,23.910263 23.121666,23.910263 28.768147,23.974464 
z"/>
<path fill="#F6F8F8" opacity="1.000000" stroke="none" 
	d="
M75.811523,60.454430 
	C81.406456,59.816181 86.639656,59.360298 91.789986,58.911636 
	C93.584976,69.300835 87.917862,75.575012 78.442856,73.858047 
	C75.704674,73.361862 72.434486,70.837631 71.174484,68.348923 
	C69.425293,64.893959 71.982704,62.117050 75.811523,60.454430 
z"/>
<path fill="#F2F4F5" opacity="1.000000" stroke="none" 
	d="
M227.820221,45.277863 
	C229.040375,47.767876 230.044647,49.956173 231.250946,52.584732 
	C221.977722,52.584732 213.453201,52.584732 204.582535,52.584732 
	C205.213928,46.920719 207.697159,42.892086 212.825348,41.020542 
	C218.543198,38.933792 223.594040,40.234524 227.820221,45.277863 
z"/>
</svg>